<?xml version="1.0" encoding="UTF-8"?>
<!DOCTYPE svg PUBLIC "-//W3C//DTD SVG 1.1//EN" "http://www.w3.org/Graphics/SVG/1.1/DTD/svg11.dtd">
<svg xmlns="http://www.w3.org/2000/svg" version="1.1" width="1169px" height="843px" style="shape-rendering:geometricPrecision; text-rendering:geometricPrecision; image-rendering:optimizeQuality; fill-rule:evenodd; clip-rule:evenodd" xmlns:xlink="http://www.w3.org/1999/xlink">
<g><path style="opacity:0.987" fill="#233f99" d="M 424.5,9.5 C 424.5,26.1667 424.5,42.8333 424.5,59.5C 410.99,59.1711 397.656,59.5044 384.5,60.5C 381.123,60.9595 377.789,61.6261 374.5,62.5C 373.503,45.6749 373.17,28.6749 373.5,11.5C 374.952,10.6981 376.618,10.1981 378.5,10C 393.83,9.50008 409.163,9.33341 424.5,9.5 Z"/></g>
<g><path style="opacity:0.983" fill="#1f449c" d="M 424.5,9.5 C 431.5,9.5 438.5,9.5 445.5,9.5C 445.5,26.1667 445.5,42.8333 445.5,59.5C 438.5,59.5 431.5,59.5 424.5,59.5C 424.5,42.8333 424.5,26.1667 424.5,9.5 Z"/></g>
<g><path style="opacity:0.983" fill="#1f489d" d="M 445.5,9.5 C 453.833,9.5 462.167,9.5 470.5,9.5C 470.5,26.1667 470.5,42.8333 470.5,59.5C 466.958,59.1872 463.625,59.5206 460.5,60.5C 435.167,60.5 409.833,60.5 384.5,60.5C 397.656,59.5044 410.99,59.1711 424.5,59.5C 431.5,59.5 438.5,59.5 445.5,59.5C 445.5,42.8333 445.5,26.1667 445.5,9.5 Z"/></g>
<g><path style="opacity:0.984" fill="#1d4da1" d="M 470.5,9.5 C 483.5,9.5 496.5,9.5 509.5,9.5C 509.5,26.1667 509.5,42.8333 509.5,59.5C 500.651,59.1736 491.984,59.507 483.5,60.5C 475.833,60.5 468.167,60.5 460.5,60.5C 463.625,59.5206 466.958,59.1872 470.5,59.5C 470.5,42.8333 470.5,26.1667 470.5,9.5 Z"/></g>
<g><path style="opacity:0.99" fill="#1a54a5" d="M 509.5,9.5 C 521.5,9.5 533.5,9.5 545.5,9.5C 545.5,26.1667 545.5,42.8333 545.5,59.5C 524.833,59.8333 504.167,60.1667 483.5,60.5C 491.984,59.507 500.651,59.1736 509.5,59.5C 509.5,42.8333 509.5,26.1667 509.5,9.5 Z"/></g>
<g><path style="opacity:0.994" fill="#1b5aa9" d="M 545.5,9.5 C 559.167,9.5 572.833,9.5 586.5,9.5C 586.5,26.1667 586.5,42.8333 586.5,59.5C 572.833,59.5 559.167,59.5 545.5,59.5C 545.5,42.8333 545.5,26.1667 545.5,9.5 Z"/></g>
<g><path style="opacity:0.994" fill="#1c5fad" d="M 586.5,9.5 C 595.5,9.5 604.5,9.5 613.5,9.5C 613.5,26.1667 613.5,42.8333 613.5,59.5C 604.5,59.5 595.5,59.5 586.5,59.5C 586.5,42.8333 586.5,26.1667 586.5,9.5 Z"/></g>
<g><path style="opacity:0.994" fill="#2064b0" d="M 613.5,9.5 C 623.167,9.5 632.833,9.5 642.5,9.5C 642.5,26.1667 642.5,42.8333 642.5,59.5C 632.833,59.5 623.167,59.5 613.5,59.5C 613.5,42.8333 613.5,26.1667 613.5,9.5 Z"/></g>
<g><path style="opacity:0.994" fill="#1b68b3" d="M 642.5,9.5 C 654.167,9.5 665.833,9.5 677.5,9.5C 677.5,26.1667 677.5,42.8333 677.5,59.5C 665.833,59.5 654.167,59.5 642.5,59.5C 642.5,42.8333 642.5,26.1667 642.5,9.5 Z"/></g>
<g><path style="opacity:0.994" fill="#156db6" d="M 677.5,9.5 C 685.833,9.5 694.167,9.5 702.5,9.5C 702.5,26.1667 702.5,42.8333 702.5,59.5C 694.167,59.5 685.833,59.5 677.5,59.5C 677.5,42.8333 677.5,26.1667 677.5,9.5 Z"/></g>
<g><path style="opacity:0.99" fill="#1172b9" d="M 702.5,9.5 C 716.912,9.18444 731.245,9.51777 745.5,10.5C 745.5,27.1667 745.5,43.8333 745.5,60.5C 748.059,60.1984 750.393,60.5318 752.5,61.5C 735.879,59.8764 719.212,59.2097 702.5,59.5C 702.5,42.8333 702.5,26.1667 702.5,9.5 Z"/></g>
<g><path style="opacity:0.989" fill="#0b76bc" d="M 745.5,10.5 C 763.887,10.8811 781.887,13.2144 799.5,17.5C 799.5,34.8333 799.5,52.1667 799.5,69.5C 784.12,65.4366 768.454,62.7699 752.5,61.5C 750.393,60.5318 748.059,60.1984 745.5,60.5C 745.5,43.8333 745.5,27.1667 745.5,10.5 Z"/></g>
<g><path style="opacity:0.988" fill="#333d94" d="M 373.5,11.5 C 373.17,28.6749 373.503,45.6749 374.5,62.5C 365.409,66.8798 356.409,71.5465 347.5,76.5C 346.503,58.0075 346.17,39.3408 346.5,20.5C 354.82,15.7265 363.82,12.7265 373.5,11.5 Z"/></g>
<g><path style="opacity:0.989" fill="#047abf" d="M 799.5,17.5 C 813.649,19.9933 826.982,24.66 839.5,31.5C 839.179,52.2423 839.512,72.909 840.5,93.5C 832.73,88.2437 825.064,82.7437 817.5,77C 811.755,73.8095 805.755,71.3095 799.5,69.5C 799.5,52.1667 799.5,34.8333 799.5,17.5 Z"/></g>
<g><path style="opacity:0.987" fill="#3f3c91" d="M 346.5,20.5 C 346.17,39.3408 346.503,58.0075 347.5,76.5C 337.463,83.8583 327.13,90.8583 316.5,97.5C 315.503,77.6736 315.17,57.6736 315.5,37.5C 325.066,30.5478 335.4,24.8812 346.5,20.5 Z"/></g>
<g><path style="opacity:0.987" fill="#007fc4" d="M 839.5,31.5 C 862.01,47.2547 884.343,63.2547 906.5,79.5C 906.5,100.5 906.5,121.5 906.5,142.5C 884.462,126.155 862.462,109.822 840.5,93.5C 839.512,72.909 839.179,52.2423 839.5,31.5 Z"/></g>
<g><path style="opacity:0.987" fill="#473b8e" d="M 315.5,37.5 C 315.17,57.6736 315.503,77.6736 316.5,97.5C 311.108,101.553 305.441,105.22 299.5,108.5C 298.503,89.0071 298.17,69.3404 298.5,49.5C 303.603,44.7748 309.269,40.7748 315.5,37.5 Z"/></g>
<g><path style="opacity:0.989" fill="#503a8a" d="M 298.5,49.5 C 298.17,69.3404 298.503,89.0071 299.5,108.5C 287.852,116.993 275.852,124.993 263.5,132.5C 263.5,112.5 263.5,92.5 263.5,72.5C 274.959,64.5981 286.625,56.9314 298.5,49.5 Z"/></g>
<g><path style="opacity:1" fill="#231f20" d="M 545.5,59.5 C 559.167,59.5 572.833,59.5 586.5,59.5C 595.5,59.5 604.5,59.5 613.5,59.5C 623.167,59.5 632.833,59.5 642.5,59.5C 654.167,59.5 665.833,59.5 677.5,59.5C 685.833,59.5 694.167,59.5 702.5,59.5C 719.212,59.2097 735.879,59.8764 752.5,61.5C 768.454,62.7699 784.12,65.4366 799.5,69.5C 805.755,71.3095 811.755,73.8095 817.5,77C 825.064,82.7437 832.73,88.2437 840.5,93.5C 862.462,109.822 884.462,126.155 906.5,142.5C 922.906,154.912 939.572,166.912 956.5,178.5C 972.772,191.309 989.439,203.643 1006.5,215.5C 1013.98,221.47 1021.65,227.303 1029.5,233C 1044.03,240.758 1058.03,249.258 1071.5,258.5C 1080.7,265.191 1089.2,272.858 1097,281.5C 1099.58,284.997 1101.92,288.664 1104,292.5C 1102.62,359.323 1101.12,426.156 1099.5,493C 1100.11,513.168 1100.28,533.334 1100,553.5C 1099.33,562.834 1096.67,571.501 1092,579.5C 1085.29,584.388 1078.45,589.054 1071.5,593.5C 1053.78,604.684 1036.45,616.351 1019.5,628.5C 1001.91,639.414 984.581,650.747 967.5,662.5C 946.957,675.932 926.624,689.599 906.5,703.5C 891.683,712.083 877.683,721.917 864.5,733C 856.1,738.856 847.767,744.689 839.5,750.5C 826.767,758.535 813.433,765.535 799.5,771.5C 782.108,777.953 764.108,780.287 745.5,778.5C 731.163,778.305 716.829,777.972 702.5,777.5C 691.154,777.514 679.821,777.181 668.5,776.5C 659.833,776.5 651.167,776.5 642.5,776.5C 632.857,775.675 623.191,775.342 613.5,775.5C 604.182,774.817 594.849,774.483 585.5,774.5C 570.487,774.617 555.487,774.284 540.5,773.5C 527.169,773.103 513.835,772.77 500.5,772.5C 490.5,772.5 480.5,772.5 470.5,772.5C 462.2,771.629 453.867,771.295 445.5,771.5C 436.005,770.465 426.671,770.465 417.5,771.5C 402.772,773.095 388.106,772.762 373.5,770.5C 364.305,767.987 355.305,764.654 346.5,760.5C 336.537,753.846 326.537,747.18 316.5,740.5C 311.108,736.447 305.441,732.78 299.5,729.5C 293.183,724.672 286.516,720.338 279.5,716.5C 272.354,710.756 264.687,705.756 256.5,701.5C 246.463,694.142 236.13,687.142 225.5,680.5C 218.522,675.008 211.188,670.008 203.5,665.5C 197.192,660.344 190.525,655.677 183.5,651.5C 175.807,645.147 167.807,639.147 159.5,633.5C 151.858,627.531 144.191,621.531 136.5,615.5C 130.146,609.817 123.48,604.484 116.5,599.5C 107.527,590.861 98.5265,582.194 89.5,573.5C 83.1375,566.141 76.8042,558.808 70.5,551.5C 66.2923,545.751 63.1256,539.418 61,532.5C 60.8333,528 60.6667,523.5 60.5,519C 62.5322,459.512 64.0322,400.012 65,340.5C 66.0613,317.099 67.8946,293.765 70.5,270.5C 71.4912,266.899 72.6578,263.232 74,259.5C 79.1456,255.689 84.3123,252.022 89.5,248.5C 98.1667,242.833 106.833,237.167 115.5,231.5C 122.5,226.833 129.5,222.167 136.5,217.5C 144.379,212.401 152.045,207.067 159.5,201.5C 167.852,196.66 175.852,191.327 183.5,185.5C 190.711,181.946 197.378,177.613 203.5,172.5C 211.083,168.255 218.417,163.588 225.5,158.5C 232.466,154.19 239.133,149.523 245.5,144.5C 251.852,140.993 257.852,136.993 263.5,132.5C 275.852,124.993 287.852,116.993 299.5,108.5C 305.441,105.22 311.108,101.553 316.5,97.5C 327.13,90.8583 337.463,83.8583 347.5,76.5C 356.409,71.5465 365.409,66.8798 374.5,62.5C 377.789,61.6261 381.123,60.9595 384.5,60.5C 409.833,60.5 435.167,60.5 460.5,60.5C 468.167,60.5 475.833,60.5 483.5,60.5C 504.167,60.1667 524.833,59.8333 545.5,59.5 Z"/></g>
<g><path style="opacity:0.986" fill="#5a3886" d="M 263.5,72.5 C 263.5,92.5 263.5,112.5 263.5,132.5C 257.852,136.993 251.852,140.993 245.5,144.5C 244.503,125.007 244.17,105.34 244.5,85.5C 250.536,80.8088 256.869,76.4755 263.5,72.5 Z"/></g>
<g><path style="opacity:0.987" fill="#0086ca" d="M 906.5,79.5 C 923.19,91.8649 939.857,104.198 956.5,116.5C 956.5,137.167 956.5,157.833 956.5,178.5C 939.572,166.912 922.906,154.912 906.5,142.5C 906.5,121.5 906.5,100.5 906.5,79.5 Z"/></g>
<g><path style="opacity:0.986" fill="#603683" d="M 244.5,85.5 C 244.17,105.34 244.503,125.007 245.5,144.5C 239.133,149.523 232.466,154.19 225.5,158.5C 225.5,138.167 225.5,117.833 225.5,97.5C 231.693,93.2393 238.026,89.2393 244.5,85.5 Z"/></g>
<g><path style="opacity:0.987" fill="#673580" d="M 225.5,97.5 C 225.5,117.833 225.5,138.167 225.5,158.5C 218.417,163.588 211.083,168.255 203.5,172.5C 202.503,153.007 202.17,133.34 202.5,113.5C 209.955,107.933 217.621,102.599 225.5,97.5 Z"/></g>
<g><path style="opacity:0.988" fill="#6d347d" d="M 202.5,113.5 C 202.17,133.34 202.503,153.007 203.5,172.5C 197.378,177.613 190.711,181.946 183.5,185.5C 183.5,165.5 183.5,145.5 183.5,125.5C 189.693,121.239 196.026,117.239 202.5,113.5 Z"/></g>
<g><path style="opacity:0.987" fill="#008ccf" d="M 956.5,116.5 C 973.205,128.845 989.871,141.178 1006.5,153.5C 1006.5,174.167 1006.5,194.833 1006.5,215.5C 989.439,203.643 972.772,191.309 956.5,178.5C 956.5,157.833 956.5,137.167 956.5,116.5 Z"/></g>
<g><path style="opacity:0.989" fill="#73317b" d="M 183.5,125.5 C 183.5,145.5 183.5,165.5 183.5,185.5C 175.852,191.327 167.852,196.66 159.5,201.5C 159.5,181.5 159.5,161.5 159.5,141.5C 167.5,136.167 175.5,130.833 183.5,125.5 Z"/></g>
<g><path style="opacity:0.987" fill="#792f77" d="M 159.5,141.5 C 159.5,161.5 159.5,181.5 159.5,201.5C 152.045,207.067 144.379,212.401 136.5,217.5C 136.5,197.167 136.5,176.833 136.5,156.5C 143.996,151.251 151.663,146.251 159.5,141.5 Z"/></g>
<g><path style="opacity:0.985" fill="#802d74" d="M 136.5,156.5 C 136.5,176.833 136.5,197.167 136.5,217.5C 129.5,222.167 122.5,226.833 115.5,231.5C 115.5,211.167 115.5,190.833 115.5,170.5C 122.5,165.833 129.5,161.167 136.5,156.5 Z"/></g>
<g><path style="opacity:0.986" fill="#0092d6" d="M 1006.5,153.5 C 1023.57,165.062 1040.24,177.229 1056.5,190C 1061.89,192.354 1066.89,195.188 1071.5,198.5C 1071.5,218.5 1071.5,238.5 1071.5,258.5C 1058.03,249.258 1044.03,240.758 1029.5,233C 1021.65,227.303 1013.98,221.47 1006.5,215.5C 1006.5,194.833 1006.5,174.167 1006.5,153.5 Z"/></g>
<g><path style="opacity:0.987" fill="#862b70" d="M 115.5,170.5 C 115.5,190.833 115.5,211.167 115.5,231.5C 106.833,237.167 98.1667,242.833 89.5,248.5C 89.5,228.5 89.5,208.5 89.5,188.5C 97.868,182.143 106.535,176.143 115.5,170.5 Z"/></g>
<g><path style="opacity:0.988" fill="#8c286d" d="M 89.5,188.5 C 89.5,208.5 89.5,228.5 89.5,248.5C 84.3123,252.022 79.1456,255.689 74,259.5C 72.6578,263.232 71.4912,266.899 70.5,270.5C 70.5,247.167 70.5,223.833 70.5,200.5C 76.6927,196.239 83.026,192.239 89.5,188.5 Z"/></g>
<g><path style="opacity:0.992" fill="#0099dc" d="M 1071.5,198.5 C 1086.03,206.597 1099.7,215.931 1112.5,226.5C 1112.5,359.833 1112.5,493.167 1112.5,626.5C 1099.36,636.243 1085.69,645.243 1071.5,653.5C 1071.5,633.5 1071.5,613.5 1071.5,593.5C 1078.45,589.054 1085.29,584.388 1092,579.5C 1096.67,571.501 1099.33,562.834 1100,553.5C 1100.28,533.334 1100.11,513.168 1099.5,493C 1101.12,426.156 1102.62,359.323 1104,292.5C 1101.92,288.664 1099.58,284.997 1097,281.5C 1089.2,272.858 1080.7,265.191 1071.5,258.5C 1071.5,238.5 1071.5,218.5 1071.5,198.5 Z"/></g>
<g><path style="opacity:0.994" fill="#90266a" d="M 70.5,200.5 C 70.5,223.833 70.5,247.167 70.5,270.5C 67.8946,293.765 66.0613,317.099 65,340.5C 64.0322,400.012 62.5322,459.512 60.5,519C 60.6667,523.5 60.8333,528 61,532.5C 63.1256,539.418 66.2923,545.751 70.5,551.5C 70.5,576.167 70.5,600.833 70.5,625.5C 65.8333,621.5 61.5,617.167 57.5,612.5C 57.5,478.167 57.5,343.833 57.5,209.5C 61.6218,206.266 65.9551,203.266 70.5,200.5 Z"/></g>
<g><path style="opacity:0.996" fill="#942469" d="M 57.5,209.5 C 57.5,343.833 57.5,478.167 57.5,612.5C 53.1667,608.833 49.1667,604.833 45.5,600.5C 45.5,472.833 45.5,345.167 45.5,217.5C 49.205,214.474 53.205,211.808 57.5,209.5 Z"/></g>
<g><path style="opacity:0.993" fill="#982266" d="M 45.5,217.5 C 45.5,345.167 45.5,472.833 45.5,600.5C 35.1137,589.401 26.447,577.068 19.5,563.5C 19.5,468.5 19.5,373.5 19.5,278.5C 20.2189,263.739 23.0522,249.406 28,235.5C 31.9953,227.672 37.8287,221.672 45.5,217.5 Z"/></g>
<g><path style="opacity:1" fill="#7b2f76" d="M 485.5,225.5 C 491.645,224.51 497.978,224.177 504.5,224.5C 509.5,224.5 514.5,224.5 519.5,224.5C 519.5,234.5 519.5,244.5 519.5,254.5C 512.178,255.038 504.845,255.371 497.5,255.5C 497.5,245.5 497.5,235.5 497.5,225.5C 493.5,225.5 489.5,225.5 485.5,225.5 Z"/></g>
<g><path style="opacity:1" fill="#6f337d" d="M 519.5,224.5 C 526.833,224.5 534.167,224.5 541.5,224.5C 541.5,234.5 541.5,244.5 541.5,254.5C 534.167,254.5 526.833,254.5 519.5,254.5C 519.5,244.5 519.5,234.5 519.5,224.5 Z"/></g>
<g><path style="opacity:1" fill="#603681" d="M 504.5,224.5 C 532.833,223.167 561.167,223.167 589.5,224.5C 582.833,224.5 576.167,224.5 569.5,224.5C 569.5,234.5 569.5,244.5 569.5,254.5C 560.167,254.5 550.833,254.5 541.5,254.5C 541.5,244.5 541.5,234.5 541.5,224.5C 534.167,224.5 526.833,224.5 519.5,224.5C 514.5,224.5 509.5,224.5 504.5,224.5 Z"/></g>
<g><path style="opacity:1" fill="#503a8a" d="M 589.5,224.5 C 589.833,224.5 590.167,224.5 590.5,224.5C 590.5,234.833 590.5,245.167 590.5,255.5C 583.49,255.332 576.49,254.999 569.5,254.5C 569.5,244.5 569.5,234.5 569.5,224.5C 576.167,224.5 582.833,224.5 589.5,224.5 Z"/></g>
<g><path style="opacity:1" fill="#433b8f" d="M 590.5,224.5 C 596.167,224.5 601.833,224.5 607.5,224.5C 607.5,234.833 607.5,245.167 607.5,255.5C 609.735,255.205 611.735,255.539 613.5,256.5C 605.809,256.597 598.142,256.263 590.5,255.5C 590.5,245.167 590.5,234.833 590.5,224.5 Z"/></g>
<g><path style="opacity:1" fill="#872a6f" d="M 467.5,226.5 C 473.31,225.51 479.31,225.177 485.5,225.5C 489.5,225.5 493.5,225.5 497.5,225.5C 497.5,235.5 497.5,245.5 497.5,255.5C 489.868,256.358 482.201,256.691 474.5,256.5C 474.5,246.5 474.5,236.5 474.5,226.5C 472.167,226.5 469.833,226.5 467.5,226.5 Z"/></g>
<g><path style="opacity:1" fill="#323d94" d="M 607.5,224.5 C 615.014,224.796 622.347,225.462 629.5,226.5C 629.5,236.833 629.5,247.167 629.5,257.5C 624.12,257.676 618.787,257.342 613.5,256.5C 611.735,255.539 609.735,255.205 607.5,255.5C 607.5,245.167 607.5,234.833 607.5,224.5 Z"/></g>
<g><path style="opacity:1" fill="#902569" d="M 453.5,227.5 C 457.97,226.514 462.637,226.181 467.5,226.5C 469.833,226.5 472.167,226.5 474.5,226.5C 474.5,236.5 474.5,246.5 474.5,256.5C 470.366,257.485 466.032,257.818 461.5,257.5C 461.5,247.5 461.5,237.5 461.5,227.5C 458.833,227.5 456.167,227.5 453.5,227.5 Z"/></g>
<g><path style="opacity:1" fill="#233f98" d="M 629.5,226.5 C 638.282,226.329 646.949,226.996 655.5,228.5C 655.5,238.833 655.5,249.167 655.5,259.5C 654.5,259.5 653.5,259.5 652.5,259.5C 644.732,259.43 637.066,258.763 629.5,257.5C 629.5,247.167 629.5,236.833 629.5,226.5 Z"/></g>
<g><path style="opacity:1" fill="#9b2063" d="M 453.5,227.5 C 456.167,227.5 458.833,227.5 461.5,227.5C 461.5,237.5 461.5,247.5 461.5,257.5C 453.214,258.814 444.881,259.314 436.5,259C 430.854,255.879 428.187,251.045 428.5,244.5C 429.345,235.818 434.011,230.318 442.5,228C 446.152,227.501 449.818,227.335 453.5,227.5 Z"/></g>
<g><path style="opacity:1" fill="#1f479c" d="M 655.5,228.5 C 663.479,228.823 671.146,230.156 678.5,232.5C 679.142,243.221 678.475,253.554 676.5,263.5C 668.265,262.803 660.265,261.469 652.5,259.5C 653.5,259.5 654.5,259.5 655.5,259.5C 655.5,249.167 655.5,238.833 655.5,228.5 Z"/></g>
<g><path style="opacity:1" fill="#1c4ea1" d="M 678.5,232.5 C 684.946,232.856 691.279,233.856 697.5,235.5C 698.818,246.265 698.818,256.931 697.5,267.5C 690.343,266.401 683.343,265.068 676.5,263.5C 678.475,253.554 679.142,243.221 678.5,232.5 Z"/></g>
<g><path style="opacity:0.98" fill="#009fe1" d="M 1112.5,226.5 C 1131.14,240.301 1144.64,257.968 1153,279.5C 1154.3,284.927 1155.13,290.427 1155.5,296C 1153.27,365.658 1151.27,435.324 1149.5,505C 1151.75,524.49 1151.92,543.99 1150,563.5C 1148,583.999 1140.16,601.832 1126.5,617C 1122.29,620.929 1117.63,624.096 1112.5,626.5C 1112.5,493.167 1112.5,359.833 1112.5,226.5 Z"/></g>
<g><path style="opacity:1" fill="#1a53a4" d="M 697.5,235.5 C 704.18,236.747 710.513,238.747 716.5,241.5C 717.142,252.221 716.475,262.554 714.5,272.5C 708.67,271.067 703.003,269.401 697.5,267.5C 698.818,256.931 698.818,246.265 697.5,235.5 Z"/></g>
<g><path style="opacity:1" fill="#1b5aa8" d="M 716.5,241.5 C 723.859,243.026 730.859,245.36 737.5,248.5C 737.828,259.679 737.495,270.679 736.5,281.5C 729.091,278.48 721.757,275.48 714.5,272.5C 716.475,262.554 717.142,252.221 716.5,241.5 Z"/></g>
<g><path style="opacity:1" fill="#5b3680" d="M 267.5,246.5 C 267.167,246.5 266.833,246.5 266.5,246.5C 262.167,246.5 257.833,246.5 253.5,246.5C 249.833,246.5 246.167,246.5 242.5,246.5C 242.5,256.5 242.5,266.5 242.5,276.5C 239.713,277.477 236.713,277.81 233.5,277.5C 233.192,267.085 233.525,256.751 234.5,246.5C 245.628,245.201 256.628,245.201 267.5,246.5 Z"/></g>
<g><path style="opacity:1" fill="#503a8a" d="M 253.5,246.5 C 253.5,256.5 253.5,266.5 253.5,276.5C 249.833,276.5 246.167,276.5 242.5,276.5C 242.5,266.5 242.5,256.5 242.5,246.5C 246.167,246.5 249.833,246.5 253.5,246.5 Z"/></g>
<g><path style="opacity:1" fill="#3f3c90" d="M 253.5,246.5 C 257.833,246.5 262.167,246.5 266.5,246.5C 266.5,256.5 266.5,266.5 266.5,276.5C 267.791,276.263 268.791,276.596 269.5,277.5C 264.203,276.725 258.87,276.392 253.5,276.5C 253.5,266.5 253.5,256.5 253.5,246.5 Z"/></g>
<g><path style="opacity:1" fill="#243f98" d="M 266.5,246.5 C 266.833,246.5 267.167,246.5 267.5,246.5C 275.21,246.727 282.877,247.394 290.5,248.5C 291.475,258.751 291.808,269.085 291.5,279.5C 290.167,279.5 288.833,279.5 287.5,279.5C 281.5,278.833 275.5,278.167 269.5,277.5C 268.791,276.596 267.791,276.263 266.5,276.5C 266.5,266.5 266.5,256.5 266.5,246.5 Z"/></g>
<g><path style="opacity:1" fill="#6a347e" d="M 234.5,246.5 C 233.525,256.751 233.192,267.085 233.5,277.5C 229.893,278.652 226.227,279.652 222.5,280.5C 222.5,270.167 222.5,259.833 222.5,249.5C 221.167,249.5 219.833,249.5 218.5,249.5C 223.638,248.069 228.971,247.069 234.5,246.5 Z"/></g>
<g><path style="opacity:1" fill="#1f479d" d="M 290.5,248.5 C 293.5,249.167 296.5,249.833 299.5,250.5C 299.5,261.167 299.5,271.833 299.5,282.5C 295.264,281.992 291.264,280.992 287.5,279.5C 288.833,279.5 290.167,279.5 291.5,279.5C 291.808,269.085 291.475,258.751 290.5,248.5 Z"/></g>
<g><path style="opacity:1" fill="#773078" d="M 218.5,249.5 C 219.833,249.5 221.167,249.5 222.5,249.5C 222.5,259.833 222.5,270.167 222.5,280.5C 218.047,282.226 213.714,284.226 209.5,286.5C 210.144,274.784 209.478,263.451 207.5,252.5C 210.907,250.926 214.573,249.926 218.5,249.5 Z"/></g>
<g><path style="opacity:1" fill="#1c4ea0" d="M 299.5,250.5 C 303.314,251.036 306.981,252.036 310.5,253.5C 310.5,310.833 310.5,368.167 310.5,425.5C 307.074,427.274 303.407,428.274 299.5,428.5C 300.142,417.779 299.475,407.446 297.5,397.5C 299.65,396.33 301.984,395.33 304.5,394.5C 305.325,390.878 305.825,387.211 306,383.5C 306.706,350.824 306.372,318.157 305,285.5C 303.124,284.391 301.291,283.391 299.5,282.5C 299.5,271.833 299.5,261.167 299.5,250.5 Z"/></g>
<g><path style="opacity:1" fill="#1a54a5" d="M 310.5,253.5 C 314.431,254.132 317.765,255.799 320.5,258.5C 320.5,312.833 320.5,367.167 320.5,421.5C 317.397,423.384 314.063,424.718 310.5,425.5C 310.5,368.167 310.5,310.833 310.5,253.5 Z"/></g>
<g><path style="opacity:1" fill="#832c71" d="M 207.5,252.5 C 209.478,263.451 210.144,274.784 209.5,286.5C 205.833,289.5 202.5,292.833 199.5,296.5C 199.829,282.99 199.496,269.656 198.5,256.5C 201.088,254.408 204.088,253.075 207.5,252.5 Z"/></g>
<g><path style="opacity:1" fill="#1b5aa9" d="M 320.5,258.5 C 325.737,260.614 329.404,264.281 331.5,269.5C 331.5,317.167 331.5,364.833 331.5,412.5C 328.73,416.605 325.063,419.605 320.5,421.5C 320.5,367.167 320.5,312.833 320.5,258.5 Z"/></g>
<g><path style="opacity:1" fill="#1f62ae" d="M 737.5,248.5 C 748.775,252.132 758.775,257.798 767.5,265.5C 766.504,279.99 766.171,294.657 766.5,309.5C 758.084,298.416 748.084,289.083 736.5,281.5C 737.495,270.679 737.828,259.679 737.5,248.5 Z"/></g>
<g><path style="opacity:1" fill="#922569" d="M 191.5,260.5 C 191.832,351.404 191.499,442.237 190.5,533C 190.879,540.69 191.879,548.19 193.5,555.5C 189.239,555.102 185.239,554.102 181.5,552.5C 182.5,552.5 183.5,552.5 184.5,552.5C 184.833,456.999 184.499,361.665 183.5,266.5C 185.443,263.529 188.109,261.529 191.5,260.5 Z"/></g>
<g><path style="opacity:1" fill="#992266" d="M 183.5,266.5 C 184.499,361.665 184.833,456.999 184.5,552.5C 183.5,552.5 182.5,552.5 181.5,552.5C 179.597,552.204 177.93,551.537 176.5,550.5C 177.833,458.167 177.833,365.833 176.5,273.5C 178.5,270.833 180.833,268.5 183.5,266.5 Z"/></g>
<g><path style="opacity:1" fill="#1d5da7" d="M 331.5,269.5 C 332.79,270.058 333.623,271.058 334,272.5C 335.737,276.661 336.737,280.995 337,285.5C 337.201,316.02 338.034,346.52 339.5,377C 340.329,387.526 338.829,397.692 335,407.5C 333.97,409.346 332.804,411.013 331.5,412.5C 331.5,364.833 331.5,317.167 331.5,269.5 Z"/></g>
<g><path style="opacity:1" fill="#9d1f62" d="M 176.5,273.5 C 177.833,365.833 177.833,458.167 176.5,550.5C 164.485,544.802 159.652,535.468 162,522.5C 162.167,513.5 162.333,504.5 162.5,495.5C 160.729,435.51 160.229,375.51 161,315.5C 162.138,299.91 167.305,285.91 176.5,273.5 Z"/></g>
<g><path style="opacity:1" fill="#231f20" d="M 242.5,276.5 C 246.167,276.5 249.833,276.5 253.5,276.5C 258.87,276.392 264.203,276.725 269.5,277.5C 275.5,278.167 281.5,278.833 287.5,279.5C 291.264,280.992 295.264,281.992 299.5,282.5C 301.291,283.391 303.124,284.391 305,285.5C 306.372,318.157 306.706,350.824 306,383.5C 305.825,387.211 305.325,390.878 304.5,394.5C 301.984,395.33 299.65,396.33 297.5,397.5C 294.273,397.676 291.273,398.343 288.5,399.5C 282.509,399.966 276.509,400.299 270.5,400.5C 264.811,400.532 259.145,400.866 253.5,401.5C 249.833,401.5 246.167,401.5 242.5,401.5C 239.5,401.5 236.5,401.5 233.5,401.5C 229.833,401.5 226.167,401.5 222.5,401.5C 218.232,400.627 213.898,400.294 209.5,400.5C 205.202,399.8 200.869,399.467 196.5,399.5C 195.167,399.5 193.833,399.5 192.5,399.5C 192.333,371.831 192.5,344.165 193,316.5C 194.25,309.489 196.416,302.823 199.5,296.5C 202.5,292.833 205.833,289.5 209.5,286.5C 213.714,284.226 218.047,282.226 222.5,280.5C 226.227,279.652 229.893,278.652 233.5,277.5C 236.713,277.81 239.713,277.477 242.5,276.5 Z"/></g>
<g><path style="opacity:1" fill="#176bb4" d="M 767.5,265.5 C 770.414,266.906 772.914,268.906 775,271.5C 782.739,281.061 790.239,290.728 797.5,300.5C 797.83,317.009 797.496,333.342 796.5,349.5C 786.5,336.167 776.5,322.833 766.5,309.5C 766.171,294.657 766.504,279.99 767.5,265.5 Z"/></g>
<g><path style="opacity:1" fill="#1171b8" d="M 797.5,300.5 C 805.184,309.522 812.517,318.855 819.5,328.5C 818.504,343.991 818.17,359.658 818.5,375.5C 810.702,367.245 803.369,358.578 796.5,349.5C 797.496,333.342 797.83,317.009 797.5,300.5 Z"/></g>
<g><path style="opacity:0.895" fill="#9d1f64" d="M 19.5,278.5 C 19.5,373.5 19.5,468.5 19.5,563.5C 13.1556,552.637 9.82229,540.803 9.5,528C 12.1855,463.526 14.0188,399.026 15,334.5C 15.646,315.613 17.146,296.946 19.5,278.5 Z"/></g>
<g><path style="opacity:1" fill="#793077" d="M 450.5,323.5 C 453.287,322.523 456.287,322.19 459.5,322.5C 460.833,322.5 462.167,322.5 463.5,322.5C 463.5,332.5 463.5,342.5 463.5,352.5C 460.5,353.167 457.5,353.833 454.5,354.5C 454.5,344.167 454.5,333.833 454.5,323.5C 453.167,323.5 451.833,323.5 450.5,323.5 Z"/></g>
<g><path style="opacity:1" fill="#6f337d" d="M 463.5,322.5 C 467.5,322.5 471.5,322.5 475.5,322.5C 475.5,332.5 475.5,342.5 475.5,352.5C 471.5,352.5 467.5,352.5 463.5,352.5C 463.5,342.5 463.5,332.5 463.5,322.5 Z"/></g>
<g><path style="opacity:1" fill="#613580" d="M 459.5,322.5 C 471.833,321.167 484.167,321.167 496.5,322.5C 494.167,322.5 491.833,322.5 489.5,322.5C 489.5,332.5 489.5,342.5 489.5,352.5C 484.833,352.5 480.167,352.5 475.5,352.5C 475.5,342.5 475.5,332.5 475.5,322.5C 471.5,322.5 467.5,322.5 463.5,322.5C 462.167,322.5 460.833,322.5 459.5,322.5 Z"/></g>
<g><path style="opacity:1" fill="#583988" d="M 496.5,322.5 C 497.5,322.5 498.5,322.5 499.5,322.5C 499.5,332.5 499.5,342.5 499.5,352.5C 497.5,352.5 495.5,352.5 493.5,352.5C 492.167,352.5 490.833,352.5 489.5,352.5C 489.5,342.5 489.5,332.5 489.5,322.5C 491.833,322.5 494.167,322.5 496.5,322.5 Z"/></g>
<g><path style="opacity:1" fill="#493a8d" d="M 499.5,322.5 C 503.5,322.5 507.5,322.5 511.5,322.5C 511.5,332.5 511.5,342.5 511.5,352.5C 507.5,352.5 503.5,352.5 499.5,352.5C 499.5,342.5 499.5,332.5 499.5,322.5 Z"/></g>
<g><path style="opacity:1" fill="#3b3b8e" d="M 511.5,322.5 C 514.833,322.5 518.167,322.5 521.5,322.5C 521.5,332.5 521.5,342.5 521.5,352.5C 529.833,352.5 538.167,352.5 546.5,352.5C 548.167,352.5 549.833,352.5 551.5,352.5C 551.5,352.833 551.5,353.167 551.5,353.5C 531.993,353.83 512.659,353.497 493.5,352.5C 495.5,352.5 497.5,352.5 499.5,352.5C 503.5,352.5 507.5,352.5 511.5,352.5C 511.5,342.5 511.5,332.5 511.5,322.5 Z"/></g>
<g><path style="opacity:1" fill="#273f98" d="M 521.5,322.5 C 529.833,322.5 538.167,322.5 546.5,322.5C 546.5,332.5 546.5,342.5 546.5,352.5C 538.167,352.5 529.833,352.5 521.5,352.5C 521.5,342.5 521.5,332.5 521.5,322.5 Z"/></g>
<g><path style="opacity:1" fill="#1f479e" d="M 546.5,322.5 C 551.167,322.5 555.833,322.5 560.5,322.5C 560.5,332.5 560.5,342.5 560.5,352.5C 557.5,352.5 554.5,352.5 551.5,352.5C 549.833,352.5 548.167,352.5 546.5,352.5C 546.5,342.5 546.5,332.5 546.5,322.5 Z"/></g>
<g><path style="opacity:1" fill="#1b52a4" d="M 560.5,322.5 C 568.5,322.5 576.5,322.5 584.5,322.5C 584.5,332.5 584.5,342.5 584.5,352.5C 576.5,352.5 568.5,352.5 560.5,352.5C 560.5,342.5 560.5,332.5 560.5,322.5 Z"/></g>
<g><path style="opacity:1" fill="#1c5dab" d="M 584.5,322.5 C 591.833,322.5 599.167,322.5 606.5,322.5C 606.5,332.5 606.5,342.5 606.5,352.5C 602.629,352.185 598.962,352.518 595.5,353.5C 580.833,353.5 566.167,353.5 551.5,353.5C 551.5,353.167 551.5,352.833 551.5,352.5C 554.5,352.5 557.5,352.5 560.5,352.5C 568.5,352.5 576.5,352.5 584.5,352.5C 584.5,342.5 584.5,332.5 584.5,322.5 Z"/></g>
<g><path style="opacity:1" fill="#1c67b2" d="M 606.5,322.5 C 613.5,322.5 620.5,322.5 627.5,322.5C 627.5,332.5 627.5,342.5 627.5,352.5C 620.5,352.5 613.5,352.5 606.5,352.5C 606.5,342.5 606.5,332.5 606.5,322.5 Z"/></g>
<g><path style="opacity:1" fill="#126fb6" d="M 627.5,322.5 C 634.167,322.5 640.833,322.5 647.5,322.5C 647.5,332.5 647.5,342.5 647.5,352.5C 655.167,352.5 662.833,352.5 670.5,352.5C 645.672,353.498 620.672,353.831 595.5,353.5C 598.962,352.518 602.629,352.185 606.5,352.5C 613.5,352.5 620.5,352.5 627.5,352.5C 627.5,342.5 627.5,332.5 627.5,322.5 Z"/></g>
<g><path style="opacity:1" fill="#0878bd" d="M 647.5,322.5 C 656.173,322.334 664.84,322.5 673.5,323C 681.915,327.348 684.748,334.181 682,343.5C 680.021,348.989 676.188,351.989 670.5,352.5C 662.833,352.5 655.167,352.5 647.5,352.5C 647.5,342.5 647.5,332.5 647.5,322.5 Z"/></g>
<g><path style="opacity:1" fill="#802d73" d="M 450.5,323.5 C 451.833,323.5 453.167,323.5 454.5,323.5C 454.5,333.833 454.5,344.167 454.5,354.5C 451.031,354.547 447.698,355.213 444.5,356.5C 445.476,345.915 445.809,335.248 445.5,324.5C 446.919,323.549 448.585,323.216 450.5,323.5 Z"/></g>
<g><path style="opacity:1" fill="#8d276b" d="M 445.5,324.5 C 445.809,335.248 445.476,345.915 444.5,356.5C 438.221,356.963 433.721,359.963 431,365.5C 430.957,389.168 431.457,412.835 432.5,436.5C 434.801,437.325 437.135,437.992 439.5,438.5C 439.5,449.167 439.5,459.833 439.5,470.5C 438.167,470.5 436.833,470.5 435.5,470.5C 432.572,470.435 429.905,469.768 427.5,468.5C 428.833,445.676 429.5,422.51 429.5,399C 429.5,375.664 429.167,352.498 428.5,329.5C 433.79,326.851 439.457,325.184 445.5,324.5 Z"/></g>
<g><path style="opacity:1" fill="#932469" d="M 428.5,329.5 C 429.167,352.498 429.5,375.664 429.5,399C 429.5,422.51 428.833,445.676 427.5,468.5C 426.209,468.737 425.209,468.404 424.5,467.5C 425.833,422.167 425.833,376.833 424.5,331.5C 425.514,330.326 426.847,329.66 428.5,329.5 Z"/></g>
<g><path style="opacity:1" fill="#982266" d="M 424.5,331.5 C 425.833,376.833 425.833,422.167 424.5,467.5C 421.088,466.925 418.088,465.592 415.5,463.5C 417.495,421.513 418.161,379.18 417.5,336.5C 419.267,334.11 421.6,332.443 424.5,331.5 Z"/></g>
<g><path style="opacity:1" fill="#9c1f61" d="M 417.5,336.5 C 418.161,379.18 417.495,421.513 415.5,463.5C 407.972,460.138 403.139,454.472 401,446.5C 399.754,421.51 399.42,396.51 400,371.5C 400.702,357.935 405.868,346.435 415.5,337C 416.094,336.536 416.761,336.369 417.5,336.5 Z"/></g>
<g><path style="opacity:1" fill="#89286a" d="M 198.5,256.5 C 199.496,269.656 199.829,282.99 199.5,296.5C 196.416,302.823 194.25,309.489 193,316.5C 192.5,344.165 192.333,371.831 192.5,399.5C 193.833,399.5 195.167,399.5 196.5,399.5C 196.827,409.681 196.494,419.681 195.5,429.5C 194.172,434.456 193.505,439.789 193.5,445.5C 193.996,471.667 194.662,497.667 195.5,523.5C 196.144,528.922 196.478,534.422 196.5,540C 196.495,545.546 195.828,550.712 194.5,555.5C 194.167,555.5 193.833,555.5 193.5,555.5C 191.879,548.19 190.879,540.69 190.5,533C 191.499,442.237 191.832,351.404 191.5,260.5C 193.336,258.412 195.669,257.079 198.5,256.5 Z"/></g>
<g><path style="opacity:1" fill="#0977bc" d="M 819.5,328.5 C 829.542,342.375 840.875,355.208 853.5,367C 857.898,369.857 862.232,372.691 866.5,375.5C 866.189,386.914 866.523,398.248 867.5,409.5C 848.227,402.367 831.894,391.034 818.5,375.5C 818.17,359.658 818.504,343.991 819.5,328.5 Z"/></g>
<g><path style="opacity:1" fill="#0180c4" d="M 866.5,375.5 C 874.626,378.36 882.959,380.527 891.5,382C 905.514,382.676 919.514,382.509 933.5,381.5C 931.393,382.468 929.059,382.802 926.5,382.5C 926.5,392.5 926.5,402.5 926.5,412.5C 906.532,415.98 886.866,414.98 867.5,409.5C 866.523,398.248 866.189,386.914 866.5,375.5 Z"/></g>
<g><path style="opacity:1" fill="#008dd0" d="M 987.5,383.5 C 986.5,383.5 985.5,383.5 984.5,383.5C 984.193,393.582 984.526,403.582 985.5,413.5C 977.6,412.002 969.6,411.335 961.5,411.5C 949.834,411.939 938.168,412.272 926.5,412.5C 926.5,402.5 926.5,392.5 926.5,382.5C 929.059,382.802 931.393,382.468 933.5,381.5C 946.474,380.41 959.474,380.244 972.5,381C 977.747,381.182 982.747,382.016 987.5,383.5 Z"/></g>
<g><path style="opacity:1" fill="#0199db" d="M 987.5,383.5 C 996.325,384.549 1004.32,387.549 1011.5,392.5C 1010.5,426.329 1010.17,460.329 1010.5,494.5C 1007.92,472.616 1005.09,450.616 1002,428.5C 998.879,420.879 993.379,415.879 985.5,413.5C 984.526,403.582 984.193,393.582 984.5,383.5C 985.5,383.5 986.5,383.5 987.5,383.5 Z"/></g>
<g><path style="opacity:1" fill="#009ee0" d="M 1011.5,392.5 C 1021.45,397.627 1027.95,405.627 1031,416.5C 1039.5,451.7 1043.5,487.367 1043,523.5C 1042,533.838 1039,543.504 1034,552.5C 1030.98,557.026 1026.82,559.693 1021.5,560.5C 1006.83,560.5 992.167,560.5 977.5,560.5C 977.5,550.5 977.5,540.5 977.5,530.5C 988.346,530.828 999.013,530.494 1009.5,529.5C 1010.41,517.864 1010.75,506.197 1010.5,494.5C 1010.17,460.329 1010.5,426.329 1011.5,392.5 Z"/></g>
<g><path style="opacity:1" fill="#1f469d" d="M 297.5,397.5 C 299.475,407.446 300.142,417.779 299.5,428.5C 295.807,429.06 292.14,429.727 288.5,430.5C 288.5,420.167 288.5,409.833 288.5,399.5C 291.273,398.343 294.273,397.676 297.5,397.5 Z"/></g>
<g><path style="opacity:1" fill="#253f98" d="M 288.5,399.5 C 288.5,409.833 288.5,420.167 288.5,430.5C 282.178,431.014 275.845,431.347 269.5,431.5C 269.192,421.085 269.525,410.751 270.5,400.5C 276.509,400.299 282.509,399.966 288.5,399.5 Z"/></g>
<g><path style="opacity:1" fill="#822c72" d="M 196.5,399.5 C 200.869,399.467 205.202,399.8 209.5,400.5C 209.5,410.5 209.5,420.5 209.5,430.5C 206.5,430.5 203.5,430.5 200.5,430.5C 198.585,430.784 196.919,430.451 195.5,429.5C 196.494,419.681 196.827,409.681 196.5,399.5 Z"/></g>
<g><path style="opacity:1" fill="#743179" d="M 209.5,400.5 C 213.898,400.294 218.232,400.627 222.5,401.5C 222.5,411.5 222.5,421.5 222.5,431.5C 219.833,431.5 217.167,431.5 214.5,431.5C 209.637,431.819 204.97,431.486 200.5,430.5C 203.5,430.5 206.5,430.5 209.5,430.5C 209.5,420.5 209.5,410.5 209.5,400.5 Z"/></g>
<g><path style="opacity:1" fill="#68347e" d="M 222.5,401.5 C 226.167,401.5 229.833,401.5 233.5,401.5C 233.5,411.833 233.5,422.167 233.5,432.5C 226.978,432.823 220.645,432.49 214.5,431.5C 217.167,431.5 219.833,431.5 222.5,431.5C 222.5,421.5 222.5,411.5 222.5,401.5 Z"/></g>
<g><path style="opacity:1" fill="#5d3785" d="M 233.5,401.5 C 236.5,401.5 239.5,401.5 242.5,401.5C 242.808,411.915 242.475,422.249 241.5,432.5C 238.833,432.5 236.167,432.5 233.5,432.5C 233.5,422.167 233.5,411.833 233.5,401.5 Z"/></g>
<g><path style="opacity:1" fill="#503a8a" d="M 242.5,401.5 C 246.167,401.5 249.833,401.5 253.5,401.5C 253.5,411.5 253.5,421.5 253.5,431.5C 257.167,431.5 260.833,431.5 264.5,431.5C 257.018,432.492 249.352,432.825 241.5,432.5C 242.475,422.249 242.808,411.915 242.5,401.5 Z"/></g>
<g><path style="opacity:1" fill="#3f3b90" d="M 270.5,400.5 C 269.525,410.751 269.192,421.085 269.5,431.5C 267.833,431.5 266.167,431.5 264.5,431.5C 260.833,431.5 257.167,431.5 253.5,431.5C 253.5,421.5 253.5,411.5 253.5,401.5C 259.145,400.866 264.811,400.532 270.5,400.5 Z"/></g>
<g><path style="opacity:1" fill="#832b70" d="M 439.5,438.5 C 443.5,439.167 447.5,439.833 451.5,440.5C 452.209,441.404 453.209,441.737 454.5,441.5C 454.5,451.833 454.5,462.167 454.5,472.5C 451.833,472.5 449.167,472.5 446.5,472.5C 442.575,472.57 438.909,471.903 435.5,470.5C 436.833,470.5 438.167,470.5 439.5,470.5C 439.5,459.833 439.5,449.167 439.5,438.5 Z"/></g>
<g><path style="opacity:1" fill="#782f76" d="M 451.5,440.5 C 455.582,440.892 459.582,441.558 463.5,442.5C 463.5,452.833 463.5,463.167 463.5,473.5C 461.167,473.5 458.833,473.5 456.5,473.5C 452.958,473.813 449.625,473.479 446.5,472.5C 449.167,472.5 451.833,472.5 454.5,472.5C 454.5,462.167 454.5,451.833 454.5,441.5C 453.209,441.737 452.209,441.404 451.5,440.5 Z"/></g>
<g><path style="opacity:1" fill="#6e337b" d="M 463.5,442.5 C 467.534,442.505 471.534,442.838 475.5,443.5C 475.5,453.833 475.5,464.167 475.5,474.5C 468.978,474.823 462.645,474.49 456.5,473.5C 458.833,473.5 461.167,473.5 463.5,473.5C 463.5,463.167 463.5,452.833 463.5,442.5 Z"/></g>
<g><path style="opacity:1" fill="#623683" d="M 475.5,443.5 C 480.167,443.5 484.833,443.5 489.5,443.5C 489.5,453.833 489.5,464.167 489.5,474.5C 484.833,474.5 480.167,474.5 475.5,474.5C 475.5,464.167 475.5,453.833 475.5,443.5 Z"/></g>
<g><path style="opacity:1" fill="#583988" d="M 489.5,443.5 C 492.833,443.5 496.167,443.5 499.5,443.5C 499.5,453.833 499.5,464.167 499.5,474.5C 497.167,474.5 494.833,474.5 492.5,474.5C 491.5,474.5 490.5,474.5 489.5,474.5C 489.5,464.167 489.5,453.833 489.5,443.5 Z"/></g>
<g><path style="opacity:1" fill="#493a8d" d="M 499.5,443.5 C 503.5,443.5 507.5,443.5 511.5,443.5C 511.5,453.833 511.5,464.167 511.5,474.5C 507.5,474.5 503.5,474.5 499.5,474.5C 499.5,464.167 499.5,453.833 499.5,443.5 Z"/></g>
<g><path style="opacity:1" fill="#353d94" d="M 511.5,443.5 C 517.833,443.5 524.167,443.5 530.5,443.5C 530.5,453.833 530.5,464.167 530.5,474.5C 524.167,474.5 517.833,474.5 511.5,474.5C 511.5,464.167 511.5,453.833 511.5,443.5 Z"/></g>
<g><path style="opacity:1" fill="#233f99" d="M 530.5,443.5 C 535.833,443.5 541.167,443.5 546.5,443.5C 546.5,453.833 546.5,464.167 546.5,474.5C 541.167,474.5 535.833,474.5 530.5,474.5C 530.5,464.167 530.5,453.833 530.5,443.5 Z"/></g>
<g><path style="opacity:1" fill="#1f479e" d="M 546.5,443.5 C 551.167,443.5 555.833,443.5 560.5,443.5C 560.5,453.833 560.5,464.167 560.5,474.5C 555.833,474.5 551.167,474.5 546.5,474.5C 546.5,464.167 546.5,453.833 546.5,443.5 Z"/></g>
<g><path style="opacity:1" fill="#1b52a4" d="M 560.5,443.5 C 568.5,443.5 576.5,443.5 584.5,443.5C 584.5,453.833 584.5,464.167 584.5,474.5C 576.5,474.5 568.5,474.5 560.5,474.5C 560.5,464.167 560.5,453.833 560.5,443.5 Z"/></g>
<g><path style="opacity:1" fill="#1e5aa3" d="M 584.5,443.5 C 591.833,443.5 599.167,443.5 606.5,443.5C 606.5,453.833 606.5,464.167 606.5,474.5C 613.5,474.5 620.5,474.5 627.5,474.5C 631.833,474.5 636.167,474.5 640.5,474.5C 591.167,475.833 541.833,475.833 492.5,474.5C 494.833,474.5 497.167,474.5 499.5,474.5C 503.5,474.5 507.5,474.5 511.5,474.5C 517.833,474.5 524.167,474.5 530.5,474.5C 535.833,474.5 541.167,474.5 546.5,474.5C 551.167,474.5 555.833,474.5 560.5,474.5C 568.5,474.5 576.5,474.5 584.5,474.5C 584.5,464.167 584.5,453.833 584.5,443.5 Z"/></g>
<g><path style="opacity:1" fill="#1c67b2" d="M 606.5,443.5 C 613.5,443.5 620.5,443.5 627.5,443.5C 627.5,453.833 627.5,464.167 627.5,474.5C 620.5,474.5 613.5,474.5 606.5,474.5C 606.5,464.167 606.5,453.833 606.5,443.5 Z"/></g>
<g><path style="opacity:1" fill="#1271b9" d="M 627.5,443.5 C 634.167,443.5 640.833,443.5 647.5,443.5C 647.5,453.833 647.5,464.167 647.5,474.5C 645.167,474.5 642.833,474.5 640.5,474.5C 636.167,474.5 631.833,474.5 627.5,474.5C 627.5,464.167 627.5,453.833 627.5,443.5 Z"/></g>
<g><path style="opacity:1" fill="#0878be" d="M 647.5,443.5 C 657.5,443.5 667.5,443.5 677.5,443.5C 677.5,453.833 677.5,464.167 677.5,474.5C 667.5,474.5 657.5,474.5 647.5,474.5C 647.5,464.167 647.5,453.833 647.5,443.5 Z"/></g>
<g><path style="opacity:1" fill="#007fc4" d="M 677.5,443.5 C 684.833,443.5 692.167,443.5 699.5,443.5C 699.5,453.833 699.5,464.167 699.5,474.5C 692.167,474.5 684.833,474.5 677.5,474.5C 677.5,464.167 677.5,453.833 677.5,443.5 Z"/></g>
<g><path style="opacity:1" fill="#0088cc" d="M 699.5,443.5 C 709.833,443.5 720.167,443.5 730.5,443.5C 730.5,453.833 730.5,464.167 730.5,474.5C 720.167,474.5 709.833,474.5 699.5,474.5C 699.5,464.167 699.5,453.833 699.5,443.5 Z"/></g>
<g><path style="opacity:1" fill="#0093d6" d="M 730.5,443.5 C 737.5,443.5 744.5,443.5 751.5,443.5C 751.5,453.833 751.5,464.167 751.5,474.5C 744.5,474.5 737.5,474.5 730.5,474.5C 730.5,464.167 730.5,453.833 730.5,443.5 Z"/></g>
<g><path style="opacity:1" fill="#009ee1" d="M 751.5,443.5 C 762.578,443.069 773.578,443.569 784.5,445C 792.945,451.126 794.778,458.959 790,468.5C 788.457,470.378 786.624,471.878 784.5,473C 773.578,474.431 762.578,474.931 751.5,474.5C 751.5,464.167 751.5,453.833 751.5,443.5 Z"/></g>
<g><path style="opacity:1" fill="#812c72" d="M 195.5,523.5 C 200.047,525.01 204.713,526.01 209.5,526.5C 209.5,536.833 209.5,547.167 209.5,557.5C 204.269,557.556 199.269,556.889 194.5,555.5C 195.828,550.712 196.495,545.546 196.5,540C 196.478,534.422 196.144,528.922 195.5,523.5 Z"/></g>
<g><path style="opacity:1" fill="#753179" d="M 209.5,526.5 C 213.924,526.652 218.257,527.319 222.5,528.5C 222.5,538.5 222.5,548.5 222.5,558.5C 220.833,558.5 219.167,558.5 217.5,558.5C 214.794,558.425 212.127,558.092 209.5,557.5C 209.5,547.167 209.5,536.833 209.5,526.5 Z"/></g>
<g><path style="opacity:1" fill="#68347f" d="M 222.5,528.5 C 225.5,528.5 228.5,528.5 231.5,528.5C 233.438,538.575 234.105,548.909 233.5,559.5C 232.167,559.5 230.833,559.5 229.5,559.5C 225.298,559.817 221.298,559.483 217.5,558.5C 219.167,558.5 220.833,558.5 222.5,558.5C 222.5,548.5 222.5,538.5 222.5,528.5 Z"/></g>
<g><path style="opacity:1" fill="#009ee0" d="M 462.5,528.5 C 472.58,528.077 482.58,528.577 492.5,530C 500.074,536.491 501.574,544.325 497,553.5C 495.457,555.378 493.624,556.878 491.5,558C 481.914,559.42 472.247,559.92 462.5,559.5C 462.5,549.167 462.5,538.833 462.5,528.5 Z"/></g>
<g><path style="opacity:1" fill="#5e3683" d="M 231.5,528.5 C 235.135,529.114 238.802,529.448 242.5,529.5C 242.5,539.833 242.5,550.167 242.5,560.5C 237.968,560.818 233.634,560.485 229.5,559.5C 230.833,559.5 232.167,559.5 233.5,559.5C 234.105,548.909 233.438,538.575 231.5,528.5 Z"/></g>
<g><path style="opacity:1" fill="#503a8a" d="M 242.5,529.5 C 246.833,529.5 251.167,529.5 255.5,529.5C 255.5,529.833 255.5,530.167 255.5,530.5C 253.526,540.111 252.859,550.111 253.5,560.5C 250.833,560.5 248.167,560.5 245.5,560.5C 244.5,560.5 243.5,560.5 242.5,560.5C 242.5,550.167 242.5,539.833 242.5,529.5 Z"/></g>
<g><path style="opacity:1" fill="#136eb2" d="M 425.5,528.5 C 417.016,529.493 408.349,529.826 399.5,529.5C 391.167,529.5 382.833,529.5 374.5,529.5C 374.5,539.833 374.5,550.167 374.5,560.5C 370.167,560.5 365.833,560.5 361.5,560.5C 359.833,560.5 358.167,560.5 356.5,560.5C 356.5,550.167 356.5,539.833 356.5,529.5C 379.491,528.718 402.491,528.385 425.5,528.5 Z"/></g>
<g><path style="opacity:1" fill="#0679bf" d="M 399.5,529.5 C 399.5,539.5 399.5,549.5 399.5,559.5C 402.5,559.5 405.5,559.5 408.5,559.5C 397.346,560.495 386.012,560.828 374.5,560.5C 374.5,550.167 374.5,539.833 374.5,529.5C 382.833,529.5 391.167,529.5 399.5,529.5 Z"/></g>
<g><path style="opacity:1" fill="#0081c6" d="M 425.5,528.5 C 434.5,528.5 443.5,528.5 452.5,528.5C 445.687,529.491 438.687,529.825 431.5,529.5C 431.5,539.5 431.5,549.5 431.5,559.5C 423.833,559.5 416.167,559.5 408.5,559.5C 405.5,559.5 402.5,559.5 399.5,559.5C 399.5,549.5 399.5,539.5 399.5,529.5C 408.349,529.826 417.016,529.493 425.5,528.5 Z"/></g>
<g><path style="opacity:1" fill="#0091d4" d="M 452.5,528.5 C 455.833,528.5 459.167,528.5 462.5,528.5C 462.5,538.833 462.5,549.167 462.5,559.5C 452.167,559.5 441.833,559.5 431.5,559.5C 431.5,549.5 431.5,539.5 431.5,529.5C 438.687,529.825 445.687,529.491 452.5,528.5 Z"/></g>
<g><path style="opacity:1" fill="#453b8f" d="M 255.5,530.5 C 257.833,530.5 260.167,530.5 262.5,530.5C 262.5,540.5 262.5,550.5 262.5,560.5C 259.5,560.5 256.5,560.5 253.5,560.5C 252.859,550.111 253.526,540.111 255.5,530.5 Z"/></g>
<g><path style="opacity:1" fill="#283f98" d="M 262.5,530.5 C 272.167,530.5 281.833,530.5 291.5,530.5C 291.5,540.5 291.5,550.5 291.5,560.5C 296.167,560.5 300.833,560.5 305.5,560.5C 305.5,560.833 305.5,561.167 305.5,561.5C 285.326,561.83 265.326,561.497 245.5,560.5C 248.167,560.5 250.833,560.5 253.5,560.5C 256.5,560.5 259.5,560.5 262.5,560.5C 262.5,550.5 262.5,540.5 262.5,530.5 Z"/></g>
<g><path style="opacity:1" fill="#1d4ba0" d="M 291.5,530.5 C 297.833,530.5 304.167,530.5 310.5,530.5C 310.5,540.5 310.5,550.5 310.5,560.5C 308.833,560.5 307.167,560.5 305.5,560.5C 300.833,560.5 296.167,560.5 291.5,560.5C 291.5,550.5 291.5,540.5 291.5,530.5 Z"/></g>
<g><path style="opacity:1" fill="#1e539d" d="M 255.5,530.5 C 255.5,530.167 255.5,529.833 255.5,529.5C 277.167,529.5 298.833,529.5 320.5,529.5C 323.962,530.482 327.629,530.815 331.5,530.5C 331.5,540.5 331.5,550.5 331.5,560.5C 339.833,560.5 348.167,560.5 356.5,560.5C 358.167,560.5 359.833,560.5 361.5,560.5C 343.007,561.497 324.341,561.83 305.5,561.5C 305.5,561.167 305.5,560.833 305.5,560.5C 307.167,560.5 308.833,560.5 310.5,560.5C 310.5,550.5 310.5,540.5 310.5,530.5C 304.167,530.5 297.833,530.5 291.5,530.5C 281.833,530.5 272.167,530.5 262.5,530.5C 260.167,530.5 257.833,530.5 255.5,530.5 Z"/></g>
<g><path style="opacity:1" fill="#1e64af" d="M 320.5,529.5 C 332.5,529.5 344.5,529.5 356.5,529.5C 356.5,539.833 356.5,550.167 356.5,560.5C 348.167,560.5 339.833,560.5 331.5,560.5C 331.5,550.5 331.5,540.5 331.5,530.5C 327.629,530.815 323.962,530.482 320.5,529.5 Z"/></g>
<g><path style="opacity:1" fill="#453b8e" d="M 595.5,530.5 C 599.5,530.5 603.5,530.5 607.5,530.5C 607.5,540.5 607.5,550.5 607.5,560.5C 603.167,560.5 598.833,560.5 594.5,560.5C 587.553,557.807 583.886,552.641 583.5,545C 584.121,537.224 588.121,532.391 595.5,530.5 Z"/></g>
<g><path style="opacity:1" fill="#273f98" d="M 607.5,530.5 C 623.5,530.5 639.5,530.5 655.5,530.5C 655.5,540.5 655.5,550.5 655.5,560.5C 639.5,560.5 623.5,560.5 607.5,560.5C 607.5,550.5 607.5,540.5 607.5,530.5 Z"/></g>
<g><path style="opacity:1" fill="#1f479e" d="M 655.5,530.5 C 663.167,530.5 670.833,530.5 678.5,530.5C 678.5,540.5 678.5,550.5 678.5,560.5C 670.833,560.5 663.167,560.5 655.5,560.5C 655.5,550.5 655.5,540.5 655.5,530.5 Z"/></g>
<g><path style="opacity:1" fill="#1d4da1" d="M 678.5,530.5 C 685.167,530.5 691.833,530.5 698.5,530.5C 698.5,540.5 698.5,550.5 698.5,560.5C 691.833,560.5 685.167,560.5 678.5,560.5C 678.5,550.5 678.5,540.5 678.5,530.5 Z"/></g>
<g><path style="opacity:1" fill="#1a54a5" d="M 698.5,530.5 C 704.5,530.5 710.5,530.5 716.5,530.5C 716.5,540.5 716.5,550.5 716.5,560.5C 710.5,560.5 704.5,560.5 698.5,560.5C 698.5,550.5 698.5,540.5 698.5,530.5 Z"/></g>
<g><path style="opacity:1" fill="#1b5aa9" d="M 716.5,530.5 C 723.5,530.5 730.5,530.5 737.5,530.5C 737.5,540.5 737.5,550.5 737.5,560.5C 730.5,560.5 723.5,560.5 716.5,560.5C 716.5,550.5 716.5,540.5 716.5,530.5 Z"/></g>
<g><path style="opacity:1" fill="#1e63af" d="M 737.5,530.5 C 747.167,530.5 756.833,530.5 766.5,530.5C 766.5,540.5 766.5,550.5 766.5,560.5C 756.833,560.5 747.167,560.5 737.5,560.5C 737.5,550.5 737.5,540.5 737.5,530.5 Z"/></g>
<g><path style="opacity:1" fill="#1b69b3" d="M 766.5,530.5 C 772.5,530.5 778.5,530.5 784.5,530.5C 784.5,540.5 784.5,550.5 784.5,560.5C 778.5,560.5 772.5,560.5 766.5,560.5C 766.5,550.5 766.5,540.5 766.5,530.5 Z"/></g>
<g><path style="opacity:1" fill="#195f97" d="M 595.5,530.5 C 733.332,529.5 871.332,529.167 1009.5,529.5C 999.013,530.494 988.346,530.828 977.5,530.5C 968.833,530.5 960.167,530.5 951.5,530.5C 934.5,530.5 917.5,530.5 900.5,530.5C 889.167,530.5 877.833,530.5 866.5,530.5C 846.833,530.5 827.167,530.5 807.5,530.5C 807.5,540.5 807.5,550.5 807.5,560.5C 827.167,560.5 846.833,560.5 866.5,560.5C 877.833,560.5 889.167,560.5 900.5,560.5C 917.5,560.5 934.5,560.5 951.5,560.5C 960.167,560.5 968.833,560.5 977.5,560.5C 992.167,560.5 1006.83,560.5 1021.5,560.5C 879.167,561.833 736.833,561.833 594.5,560.5C 598.833,560.5 603.167,560.5 607.5,560.5C 623.5,560.5 639.5,560.5 655.5,560.5C 663.167,560.5 670.833,560.5 678.5,560.5C 685.167,560.5 691.833,560.5 698.5,560.5C 704.5,560.5 710.5,560.5 716.5,560.5C 723.5,560.5 730.5,560.5 737.5,560.5C 747.167,560.5 756.833,560.5 766.5,560.5C 772.5,560.5 778.5,560.5 784.5,560.5C 784.5,550.5 784.5,540.5 784.5,530.5C 778.5,530.5 772.5,530.5 766.5,530.5C 756.833,530.5 747.167,530.5 737.5,530.5C 730.5,530.5 723.5,530.5 716.5,530.5C 710.5,530.5 704.5,530.5 698.5,530.5C 691.833,530.5 685.167,530.5 678.5,530.5C 670.833,530.5 663.167,530.5 655.5,530.5C 639.5,530.5 623.5,530.5 607.5,530.5C 603.5,530.5 599.5,530.5 595.5,530.5 Z"/></g>
<g><path style="opacity:1" fill="#0977bd" d="M 866.5,530.5 C 866.5,540.5 866.5,550.5 866.5,560.5C 846.833,560.5 827.167,560.5 807.5,560.5C 807.5,550.5 807.5,540.5 807.5,530.5C 827.167,530.5 846.833,530.5 866.5,530.5 Z"/></g>
<g><path style="opacity:1" fill="#007fc4" d="M 866.5,530.5 C 877.833,530.5 889.167,530.5 900.5,530.5C 900.5,540.5 900.5,550.5 900.5,560.5C 889.167,560.5 877.833,560.5 866.5,560.5C 866.5,550.5 866.5,540.5 866.5,530.5 Z"/></g>
<g><path style="opacity:1" fill="#008ace" d="M 900.5,530.5 C 917.5,530.5 934.5,530.5 951.5,530.5C 951.5,540.5 951.5,550.5 951.5,560.5C 934.5,560.5 917.5,560.5 900.5,560.5C 900.5,550.5 900.5,540.5 900.5,530.5 Z"/></g>
<g><path style="opacity:1" fill="#0092d6" d="M 951.5,530.5 C 960.167,530.5 968.833,530.5 977.5,530.5C 977.5,540.5 977.5,550.5 977.5,560.5C 968.833,560.5 960.167,560.5 951.5,560.5C 951.5,550.5 951.5,540.5 951.5,530.5 Z"/></g>
<g><path style="opacity:0.988" fill="#8c286d" d="M 70.5,551.5 C 76.8042,558.808 83.1375,566.141 89.5,573.5C 89.5,596.167 89.5,618.833 89.5,641.5C 82.5752,636.912 76.2418,631.578 70.5,625.5C 70.5,600.833 70.5,576.167 70.5,551.5 Z"/></g>
<g><path style="opacity:0.987" fill="#862b70" d="M 89.5,573.5 C 98.5265,582.194 107.527,590.861 116.5,599.5C 115.503,620.66 115.169,641.993 115.5,663.5C 106.515,656.513 97.8483,649.179 89.5,641.5C 89.5,618.833 89.5,596.167 89.5,573.5 Z"/></g>
<g><path style="opacity:0.987" fill="#802d74" d="M 116.5,599.5 C 123.48,604.484 130.146,609.817 136.5,615.5C 136.5,636.5 136.5,657.5 136.5,678.5C 129.24,673.913 122.24,668.913 115.5,663.5C 115.169,641.993 115.503,620.66 116.5,599.5 Z"/></g>
<g><path style="opacity:0.988" fill="#0093d7" d="M 1071.5,593.5 C 1071.5,613.5 1071.5,633.5 1071.5,653.5C 1054.55,665.649 1037.22,677.316 1019.5,688.5C 1019.5,668.5 1019.5,648.5 1019.5,628.5C 1036.45,616.351 1053.78,604.684 1071.5,593.5 Z"/></g>
<g><path style="opacity:0.988" fill="#792f77" d="M 136.5,615.5 C 144.191,621.531 151.858,627.531 159.5,633.5C 159.5,654.167 159.5,674.833 159.5,695.5C 151.261,690.553 143.594,684.887 136.5,678.5C 136.5,657.5 136.5,636.5 136.5,615.5 Z"/></g>
<g><path style="opacity:0.986" fill="#008dd0" d="M 1019.5,628.5 C 1019.5,648.5 1019.5,668.5 1019.5,688.5C 1002.2,700.154 984.87,711.82 967.5,723.5C 967.5,703.167 967.5,682.833 967.5,662.5C 984.581,650.747 1001.91,639.414 1019.5,628.5 Z"/></g>
<g><path style="opacity:0.987" fill="#73317b" d="M 159.5,633.5 C 167.807,639.147 175.807,645.147 183.5,651.5C 183.5,671.833 183.5,692.167 183.5,712.5C 175.111,707.312 167.111,701.646 159.5,695.5C 159.5,674.833 159.5,654.167 159.5,633.5 Z"/></g>
<g><path style="opacity:0.988" fill="#6d347d" d="M 183.5,651.5 C 190.525,655.677 197.192,660.344 203.5,665.5C 202.503,685.326 202.17,705.326 202.5,725.5C 195.956,721.401 189.623,717.068 183.5,712.5C 183.5,692.167 183.5,671.833 183.5,651.5 Z"/></g>
<g><path style="opacity:0.986" fill="#673580" d="M 203.5,665.5 C 211.188,670.008 218.522,675.008 225.5,680.5C 225.5,700.5 225.5,720.5 225.5,740.5C 217.558,735.886 209.892,730.886 202.5,725.5C 202.17,705.326 202.503,685.326 203.5,665.5 Z"/></g>
<g><path style="opacity:0.988" fill="#0086ca" d="M 967.5,662.5 C 967.5,682.833 967.5,703.167 967.5,723.5C 947.167,736.833 926.833,750.167 906.5,763.5C 906.5,743.5 906.5,723.5 906.5,703.5C 926.624,689.599 946.957,675.932 967.5,662.5 Z"/></g>
<g><path style="opacity:0.989" fill="#5e3784" d="M 225.5,680.5 C 236.13,687.142 246.463,694.142 256.5,701.5C 256.5,721.5 256.5,741.5 256.5,761.5C 245.957,754.735 235.623,747.735 225.5,740.5C 225.5,720.5 225.5,700.5 225.5,680.5 Z"/></g>
<g><path style="opacity:0.989" fill="#553988" d="M 256.5,701.5 C 264.687,705.756 272.354,710.756 279.5,716.5C 278.503,735.993 278.17,755.66 278.5,775.5C 271.167,770.833 263.833,766.167 256.5,761.5C 256.5,741.5 256.5,721.5 256.5,701.5 Z"/></g>
<g><path style="opacity:0.987" fill="#007fc4" d="M 906.5,703.5 C 906.5,723.5 906.5,743.5 906.5,763.5C 886.081,781.235 863.747,796.235 839.5,808.5C 839.5,789.167 839.5,769.833 839.5,750.5C 847.767,744.689 856.1,738.856 864.5,733C 877.683,721.917 891.683,712.083 906.5,703.5 Z"/></g>
<g><path style="opacity:0.987" fill="#4e3a8b" d="M 279.5,716.5 C 286.516,720.338 293.183,724.672 299.5,729.5C 298.503,749.326 298.17,769.326 298.5,789.5C 291.796,784.821 285.129,780.154 278.5,775.5C 278.17,755.66 278.503,735.993 279.5,716.5 Z"/></g>
<g><path style="opacity:0.986" fill="#473b8e" d="M 299.5,729.5 C 305.441,732.78 311.108,736.447 316.5,740.5C 315.503,760.326 315.17,780.326 315.5,800.5C 309.564,797.227 303.897,793.561 298.5,789.5C 298.17,769.326 298.503,749.326 299.5,729.5 Z"/></g>
<g><path style="opacity:0.989" fill="#3d3c91" d="M 316.5,740.5 C 326.537,747.18 336.537,753.846 346.5,760.5C 346.5,778.5 346.5,796.5 346.5,814.5C 335.395,811.362 325.062,806.695 315.5,800.5C 315.17,780.326 315.503,760.326 316.5,740.5 Z"/></g>
<g><path style="opacity:0.988" fill="#047abf" d="M 839.5,750.5 C 839.5,769.833 839.5,789.167 839.5,808.5C 826.937,815.581 813.603,820.914 799.5,824.5C 799.5,806.833 799.5,789.167 799.5,771.5C 813.433,765.535 826.767,758.535 839.5,750.5 Z"/></g>
<g><path style="opacity:0.989" fill="#313d95" d="M 346.5,760.5 C 355.305,764.654 364.305,767.987 373.5,770.5C 373.5,787.5 373.5,804.5 373.5,821.5C 364.113,820.238 355.113,817.904 346.5,814.5C 346.5,796.5 346.5,778.5 346.5,760.5 Z"/></g>
<g><path style="opacity:0.99" fill="#233f98" d="M 373.5,770.5 C 388.106,772.762 402.772,773.095 417.5,771.5C 419.833,771.5 422.167,771.5 424.5,771.5C 424.5,788.167 424.5,804.833 424.5,821.5C 407.49,824.166 390.49,824.166 373.5,821.5C 373.5,804.5 373.5,787.5 373.5,770.5 Z"/></g>
<g><path style="opacity:0.994" fill="#20449b" d="M 417.5,771.5 C 426.671,770.465 436.005,770.465 445.5,771.5C 445.5,788.167 445.5,804.833 445.5,821.5C 438.5,821.5 431.5,821.5 424.5,821.5C 424.5,804.833 424.5,788.167 424.5,771.5C 422.167,771.5 419.833,771.5 417.5,771.5 Z"/></g>
<g><path style="opacity:0.986" fill="#1e489e" d="M 445.5,771.5 C 453.867,771.295 462.2,771.629 470.5,772.5C 470.5,789.167 470.5,805.833 470.5,822.5C 462.138,822.665 453.805,822.332 445.5,821.5C 445.5,804.833 445.5,788.167 445.5,771.5 Z"/></g>
<g><path style="opacity:0.994" fill="#1d4da1" d="M 470.5,772.5 C 480.5,772.5 490.5,772.5 500.5,772.5C 503.287,773.477 506.287,773.81 509.5,773.5C 509.5,790.167 509.5,806.833 509.5,823.5C 496.505,823.015 483.505,822.682 470.5,822.5C 470.5,805.833 470.5,789.167 470.5,772.5 Z"/></g>
<g><path style="opacity:0.991" fill="#1a54a4" d="M 500.5,772.5 C 513.835,772.77 527.169,773.103 540.5,773.5C 541.919,774.451 543.585,774.784 545.5,774.5C 545.5,791.167 545.5,807.833 545.5,824.5C 533.515,823.757 521.515,823.424 509.5,823.5C 509.5,806.833 509.5,790.167 509.5,773.5C 506.287,773.81 503.287,773.477 500.5,772.5 Z"/></g>
<g><path style="opacity:0.992" fill="#1b5aa9" d="M 540.5,773.5 C 555.487,774.284 570.487,774.617 585.5,774.5C 586.485,791.423 586.818,808.423 586.5,825.5C 572.851,824.662 559.184,824.329 545.5,824.5C 545.5,807.833 545.5,791.167 545.5,774.5C 543.585,774.784 541.919,774.451 540.5,773.5 Z"/></g>
<g><path style="opacity:0.991" fill="#1c5fac" d="M 585.5,774.5 C 594.849,774.483 604.182,774.817 613.5,775.5C 613.5,792.167 613.5,808.833 613.5,825.5C 604.5,825.5 595.5,825.5 586.5,825.5C 586.818,808.423 586.485,791.423 585.5,774.5 Z"/></g>
<g><path style="opacity:0.988" fill="#2064af" d="M 613.5,775.5 C 623.191,775.342 632.857,775.675 642.5,776.5C 642.5,793.167 642.5,809.833 642.5,826.5C 632.812,826.62 623.146,826.287 613.5,825.5C 613.5,808.833 613.5,792.167 613.5,775.5 Z"/></g>
<g><path style="opacity:0.992" fill="#1b68b3" d="M 642.5,776.5 C 651.167,776.5 659.833,776.5 668.5,776.5C 671.287,777.477 674.287,777.81 677.5,777.5C 677.5,794.167 677.5,810.833 677.5,827.5C 665.841,826.945 654.174,826.612 642.5,826.5C 642.5,809.833 642.5,793.167 642.5,776.5 Z"/></g>
<g><path style="opacity:0.994" fill="#156db6" d="M 668.5,776.5 C 679.821,777.181 691.154,777.514 702.5,777.5C 702.5,794.167 702.5,810.833 702.5,827.5C 694.167,827.5 685.833,827.5 677.5,827.5C 677.5,810.833 677.5,794.167 677.5,777.5C 674.287,777.81 671.287,777.477 668.5,776.5 Z"/></g>
<g><path style="opacity:0.994" fill="#1072b9" d="M 702.5,777.5 C 716.829,777.972 731.163,778.305 745.5,778.5C 745.5,795.167 745.5,811.833 745.5,828.5C 731.137,828.764 716.804,828.431 702.5,827.5C 702.5,810.833 702.5,794.167 702.5,777.5 Z"/></g>
<g><path style="opacity:0.987" fill="#0c76bc" d="M 799.5,771.5 C 799.5,789.167 799.5,806.833 799.5,824.5C 792.492,826.951 785.159,828.451 777.5,829C 766.8,829.763 756.133,829.596 745.5,828.5C 745.5,811.833 745.5,795.167 745.5,778.5C 764.108,780.287 782.108,777.953 799.5,771.5 Z"/></g>
</svg>
